<svg width="13" height="13" viewBox="0 0 13 13" fill="none" xmlns="http://www.w3.org/2000/svg">
<path d="M6.5 3.79171C6.35634 3.79171 6.21856 3.84878 6.11698 3.95036C6.0154 4.05194 5.95833 4.18972 5.95833 4.33337V6.50004C5.95833 6.6437 6.0154 6.78147 6.11698 6.88306C6.21856 6.98464 6.35634 7.04171 6.5 7.04171C6.64366 7.04171 6.78143 6.98464 6.88301 6.88306C6.9846 6.78147 7.04166 6.6437 7.04166 6.50004V4.33337C7.04166 4.18972 6.9846 4.05194 6.88301 3.95036C6.78143 3.84878 6.64366 3.79171 6.5 3.79171ZM6.99833 8.46087C6.98647 8.42636 6.97008 8.39357 6.94958 8.36337L6.88458 8.28212C6.80841 8.20696 6.71168 8.15605 6.60661 8.1358C6.50153 8.11556 6.39281 8.12689 6.29416 8.16837C6.22852 8.19581 6.16806 8.23428 6.11541 8.28212C6.06521 8.33274 6.02549 8.39276 5.99854 8.45876C5.97158 8.52475 5.95792 8.59542 5.95833 8.66671C5.95919 8.73749 5.97391 8.80742 6.00166 8.87254C6.02599 8.93976 6.0648 9.00081 6.11535 9.05135C6.1659 9.1019 6.22695 9.14071 6.29416 9.16504C6.359 9.1937 6.42911 9.2085 6.5 9.2085C6.57089 9.2085 6.64099 9.1937 6.70583 9.16504C6.77305 9.14071 6.8341 9.1019 6.88464 9.05135C6.93519 9.00081 6.974 8.93976 6.99833 8.87254C7.02609 8.80742 7.04081 8.73749 7.04166 8.66671C7.04432 8.63065 7.04432 8.59444 7.04166 8.55837C7.03234 8.52383 7.01772 8.49094 6.99833 8.46087V8.46087ZM6.5 1.08337C5.42868 1.08337 4.38142 1.40106 3.49066 1.99625C2.59989 2.59144 1.90562 3.43741 1.49565 4.42717C1.08568 5.41694 0.978407 6.50605 1.18741 7.55678C1.39641 8.60751 1.9123 9.57267 2.66984 10.3302C3.42737 11.0877 4.39253 11.6036 5.44326 11.8126C6.49399 12.0216 7.5831 11.9144 8.57287 11.5044C9.56263 11.0944 10.4086 10.4001 11.0038 9.50938C11.599 8.61861 11.9167 7.57136 11.9167 6.50004C11.9167 5.78871 11.7766 5.08435 11.5043 4.42717C11.2321 3.76999 10.8331 3.17286 10.3302 2.66988C9.82718 2.1669 9.23005 1.76791 8.57287 1.49569C7.91569 1.22348 7.21132 1.08337 6.5 1.08337V1.08337ZM6.5 10.8334C5.64295 10.8334 4.80514 10.5792 4.09253 10.1031C3.37991 9.62692 2.8245 8.95015 2.49652 8.15834C2.16854 7.36652 2.08273 6.49523 2.24993 5.65465C2.41713 4.81407 2.82984 4.04194 3.43587 3.43591C4.0419 2.82988 4.81402 2.41717 5.65461 2.24997C6.49519 2.08277 7.36648 2.16858 8.15829 2.49656C8.95011 2.82454 9.62688 3.37996 10.103 4.09257C10.5792 4.80518 10.8333 5.64299 10.8333 6.50004C10.8333 7.64931 10.3768 8.75151 9.56413 9.56417C8.75147 10.3768 7.64927 10.8334 6.5 10.8334V10.8334Z" fill="#111111"/>
</svg>
