<svg width="25" height="24" viewBox="0 0 25 24" fill="none" xmlns="http://www.w3.org/2000/svg">
<path d="M13.3343 19.9381C17.2806 19.446 20.3343 16.0796 20.3343 12C20.3343 7.58172 16.7526 4 12.3343 4C7.91601 4 4.33429 7.58172 4.33429 12C4.33429 16.0796 7.38798 19.446 11.3343 19.9381V14H9.33429V12H11.3343V10.3458C11.3343 9.00855 11.4735 8.52362 11.735 8.03473C11.9964 7.54584 12.3801 7.16216 12.869 6.9007C13.2517 6.69604 13.7264 6.57252 14.556 6.51954C14.8852 6.49851 15.3114 6.52533 15.8343 6.6V8.5H15.3343C14.417 8.5 14.0385 8.54332 13.8122 8.66433C13.6719 8.73939 13.5737 8.83758 13.4986 8.97793C13.3776 9.20418 13.3343 9.42853 13.3343 10.3458V12H15.8343L15.3343 14H13.3343V19.9381ZM12.3343 22C6.81144 22 2.33429 17.5228 2.33429 12C2.33429 6.47715 6.81144 2 12.3343 2C17.8571 2 22.3343 6.47715 22.3343 12C22.3343 17.5228 17.8571 22 12.3343 22Z" fill="white"/>
</svg>
