<svg width="25" height="24" viewBox="0 0 25 24" fill="none" xmlns="http://www.w3.org/2000/svg">
<path d="M13.3924 19.9381C17.3387 19.446 20.3924 16.0796 20.3924 12C20.3924 7.58172 16.8107 4 12.3924 4C7.97406 4 4.39234 7.58172 4.39234 12C4.39234 16.0796 7.44603 19.446 11.3924 19.9381V14H9.39234V12H11.3924V10.3458C11.3924 9.00855 11.5316 8.52362 11.7931 8.03473C12.0545 7.54584 12.4382 7.16216 12.9271 6.9007C13.3098 6.69604 13.7845 6.57252 14.6141 6.51954C14.9433 6.49851 15.3695 6.52533 15.8924 6.6V8.5H15.3924C14.4751 8.5 14.0966 8.54332 13.8703 8.66433C13.73 8.73939 13.6318 8.83758 13.5567 8.97793C13.4357 9.20418 13.3924 9.42853 13.3924 10.3458V12H15.8924L15.3924 14H13.3924V19.9381ZM12.3924 22C6.86949 22 2.39234 17.5228 2.39234 12C2.39234 6.47715 6.86949 2 12.3924 2C17.9152 2 22.3924 6.47715 22.3924 12C22.3924 17.5228 17.9152 22 12.3924 22Z" fill="white"/>
</svg>
