<svg width="64" height="64" viewBox="0 0 64 64" fill="none" xmlns="http://www.w3.org/2000/svg">
<circle cx="32" cy="32" r="31.5" fill="#F7F7F7" stroke="#F3EFFF"/>
<g clip-path="url(#clip0_130_475)">
<path d="M41.3333 21.3334C42.0406 21.3334 42.7189 21.6143 43.219 22.1144C43.719 22.6145 44 23.2928 44 24V40C44 40.7073 43.719 41.3856 43.219 41.8857C42.7189 42.3858 42.0406 42.6667 41.3333 42.6667H22.6667C21.9594 42.6667 21.2811 42.3858 20.781 41.8857C20.281 41.3856 20 40.7073 20 40V24C20 23.2928 20.281 22.6145 20.781 22.1144C21.2811 21.6143 21.9594 21.3334 22.6667 21.3334H41.3333ZM41.3333 29.3334H22.6667V38.6667C22.6667 38.9933 22.7866 39.3085 23.0036 39.5525C23.2206 39.7966 23.5197 39.9525 23.844 39.9907L24 40H40C40.3266 40 40.6418 39.8801 40.8858 39.6631C41.1299 39.4461 41.2858 39.147 41.324 38.8227L41.3333 38.6667V29.3334ZM24 24C23.6464 24 23.3072 24.1405 23.0572 24.3906C22.8071 24.6406 22.6667 24.9798 22.6667 25.3334C22.6667 25.687 22.8071 26.0261 23.0572 26.2762C23.3072 26.5262 23.6464 26.6667 24 26.6667C24.3536 26.6667 24.6928 26.5262 24.9428 26.2762C25.1929 26.0261 25.3333 25.687 25.3333 25.3334C25.3333 24.9798 25.1929 24.6406 24.9428 24.3906C24.6928 24.1405 24.3536 24 24 24ZM28 24C27.6464 24 27.3072 24.1405 27.0572 24.3906C26.8071 24.6406 26.6667 24.9798 26.6667 25.3334C26.6667 25.687 26.8071 26.0261 27.0572 26.2762C27.3072 26.5262 27.6464 26.6667 28 26.6667C28.3536 26.6667 28.6928 26.5262 28.9428 26.2762C29.1929 26.0261 29.3333 25.687 29.3333 25.3334C29.3333 24.9798 29.1929 24.6406 28.9428 24.3906C28.6928 24.1405 28.3536 24 28 24ZM32 24C31.6464 24 31.3072 24.1405 31.0572 24.3906C30.8071 24.6406 30.6667 24.9798 30.6667 25.3334C30.6667 25.687 30.8071 26.0261 31.0572 26.2762C31.3072 26.5262 31.6464 26.6667 32 26.6667C32.3536 26.6667 32.6928 26.5262 32.9428 26.2762C33.1929 26.0261 33.3333 25.687 33.3333 25.3334C33.3333 24.9798 33.1929 24.6406 32.9428 24.3906C32.6928 24.1405 32.3536 24 32 24Z" fill="#12EC2D"/>
</g>
<defs>
<clipPath id="clip0_130_475">
<rect width="32" height="32" fill="white" transform="translate(16 16)"/>
</clipPath>
</defs>
</svg>
