<svg width="64" height="64" viewBox="0 0 64 64" fill="none" xmlns="http://www.w3.org/2000/svg">
<circle cx="32" cy="32" r="31.5" fill="#D9FFDD" stroke="#A4E0AB"/>
<path d="M40 37C39.5 37 39 36.8 38.6 36.4L35.6 33.4C35.2 33 35 32.5 35 32C35 31.5 35.2 31 35.6 30.6L38.6 27.6C39 27.2 39.5 27 40 27C40.5 27 41 27.2 41.4 27.6L44.4 30.6C44.8 31 45 31.5 45 32C45 32.5 44.8 33 44.4 33.4L41.4 36.4C41 36.8 40.5 37 40 37ZM40 29L37 32L40 35L43 32L40 29ZM32 29C31.5 29 31 28.8 30.6 28.4L27.6 25.4C27.2 25 27 24.5 27 24C27 23.5 27.2 23 27.6 22.6L30.6 19.6C31 19.2 31.5 19 32 19C32.5 19 33 19.2 33.4 19.6L36.4 22.6C36.8 23 37 23.5 37 24C37 24.5 36.8 25 36.4 25.4L33.4 28.4C33 28.8 32.5 29 32 29ZM32 21L29 24L32 27L35 24L32 21ZM32 45C31.5 45 31 44.8 30.6 44.4L27.6 41.4C27.2 41 27 40.5 27 40C27 39.5 27.2 39 27.6 38.6L30.6 35.6C31 35.2 31.5 35 32 35C32.5 35 33 35.2 33.4 35.6L36.4 38.6C36.8 39 37 39.5 37 40C37 40.5 36.8 41 36.4 41.4L33.4 44.4C33 44.8 32.5 45 32 45ZM32 37L29 40L32 43L35 40L32 37ZM24 37C23.5 37 23 36.8 22.6 36.4L19.6 33.4C19.2 33 19 32.5 19 32C19 31.5 19.2 31 19.6 30.6L22.6 27.6C23 27.2 23.5 27 24 27C24.5 27 25 27.2 25.4 27.6L28.4 30.6C28.8 31 29 31.5 29 32C29 32.5 28.8 33 28.4 33.4L25.4 36.4C25 36.8 24.5 37 24 37ZM24 29L21 32L24 35L27 32L24 29Z" fill="#212121"/>
</svg>
