<svg width="64" height="64" viewBox="0 0 64 64" fill="none" xmlns="http://www.w3.org/2000/svg">
<circle cx="32" cy="32" r="31.5" fill="#F7F7F7" stroke="#F3EFFF"/>
<path d="M39 23H43V27H39V23ZM39 29H43V33H39V29ZM33 23H37V27H33V23ZM33 29H37V33H33V29Z" fill="#12EC2D"/>
<path d="M30.5 42C31.3284 42 32 41.3284 32 40.5C32 39.6716 31.3284 39 30.5 39C29.6716 39 29 39.6716 29 40.5C29 41.3284 29.6716 42 30.5 42Z" fill="#12EC2D"/>
<path d="M37 46H24C23.4697 45.9995 22.9613 45.7886 22.5864 45.4136C22.2114 45.0387 22.0005 44.5303 22 44V20C22.0005 19.4697 22.2114 18.9613 22.5864 18.5864C22.9613 18.2114 23.4697 18.0005 24 18H37V20H24V44H37V36H39V44C38.9995 44.5303 38.7886 45.0387 38.4136 45.4136C38.0387 45.7886 37.5303 45.9995 37 46Z" fill="#12EC2D"/>
</svg>
