<svg width="64" height="64" viewBox="0 0 64 64" fill="none" xmlns="http://www.w3.org/2000/svg">
<circle cx="32" cy="32" r="31.5" fill="#D9FFDD" stroke="#A4E0AB"/>
<g clip-path="url(#clip0_373_430)">
<path d="M37.6209 30.5825C37.4128 30.4649 37.1487 30.5382 37.031 30.7462C36.9134 30.9543 36.9866 31.219 37.195 31.3367C37.5146 31.5187 37.7097 31.7217 37.8386 31.9315C37.3049 32.119 36.8318 32.1962 36.4137 32.1962C35.8019 32.1956 35.3015 32.0341 34.8795 31.7867C34.4586 31.5387 34.1182 31.1996 33.8601 30.8478C33.4348 30.2679 32.8813 29.7514 32.229 29.3746C31.5776 28.9989 30.8241 28.7642 30.0153 28.7642C29.3061 28.7637 28.5588 28.9462 27.8183 29.3529C27.5155 29.5188 27.2531 29.713 27.0245 29.925C26.1236 30.2718 25.3474 30.3966 24.6907 30.3966C23.7551 30.3966 23.0563 30.1452 22.589 29.8983C22.3557 29.7751 22.1812 29.6525 22.0683 29.5637C22.0116 29.5188 21.9704 29.4832 21.9448 29.46L21.9181 29.4344L21.914 29.4305H21.9138C21.7478 29.2602 21.4748 29.2558 21.3031 29.4211C21.1311 29.587 21.1261 29.8611 21.292 30.0331C21.3161 30.0575 21.6138 30.3622 22.1837 30.664C22.4331 30.7961 22.7389 30.9259 23.0921 31.0319C22.9983 31.164 22.8701 31.357 22.7306 31.6028C22.4623 32.0762 22.154 32.7404 21.997 33.5239C21.9501 33.758 22.1021 33.9862 22.3366 34.0333C22.571 34.0798 22.7993 33.9278 22.846 33.6932C22.9777 33.0334 23.2468 32.4469 23.4838 32.0302C23.602 31.8215 23.7116 31.6556 23.7904 31.544C23.8298 31.488 23.8614 31.4453 23.8825 31.4175C23.893 31.4042 23.9011 31.3937 23.9058 31.3875L23.9108 31.3814L23.9114 31.3808L23.9116 31.3803C23.9516 31.3315 23.9783 31.2765 23.9935 31.2188C24.2138 31.246 24.4451 31.2627 24.6907 31.2621C25.146 31.2627 25.6445 31.2088 26.1814 31.0868C25.9153 31.6605 25.8058 32.2593 25.8054 32.808C25.8065 33.3607 25.9117 33.8623 26.0993 34.2618C26.2016 34.4783 26.4599 34.5703 26.676 34.4683C26.8921 34.3662 26.9845 34.1076 26.8821 33.8918V33.8912C26.7618 33.6404 26.6701 33.2453 26.6716 32.808C26.6713 32.3364 26.7731 31.817 27.0173 31.3432C27.2628 30.8693 27.644 30.437 28.2347 30.1118C28.8581 29.7706 29.4532 29.6307 30.0153 29.6302C30.6553 29.6302 31.2583 29.815 31.7964 30.1246C32.3341 30.4348 32.8039 30.8715 33.1617 31.3597C33.4766 31.7892 33.8978 32.2132 34.4399 32.5328C34.981 32.8524 35.6452 33.0627 36.4137 33.0621C36.9222 33.0621 37.4746 32.97 38.0678 32.768L38.0692 32.799C38.0692 33.011 38.0362 33.2041 38.0032 33.3406C37.9868 33.4088 37.9705 33.4627 37.9591 33.4977C37.9533 33.5148 37.9488 33.5276 37.9461 33.5348L37.9436 33.5415L37.9433 33.5425H37.9436C37.8559 33.764 37.9638 34.0148 38.1852 34.1035C38.4071 34.1923 38.6593 34.0841 38.7481 33.8622C38.7592 33.8311 38.9335 33.3988 38.9351 32.799C38.9351 32.4549 38.8749 32.051 38.6749 31.6521C38.4763 31.2534 38.1333 30.8705 37.6209 30.5825Z" fill="#212121"/>
<path d="M38.5864 27.6911C37.3962 27.6911 36.4404 27.2527 35.7793 26.6789C35.4494 26.3926 35.1958 26.0724 35.0291 25.7662C34.8615 25.4593 34.7846 25.1674 34.7858 24.9488C34.7858 24.7096 34.5918 24.516 34.3527 24.516C34.1136 24.516 33.9198 24.7096 33.9198 24.9488C33.9209 25.3561 34.0483 25.7734 34.2686 26.1796C34.4991 26.6024 34.8359 27.013 35.2641 27.3747C35.1778 27.4946 35.0587 27.6489 34.9067 27.8142C34.5768 28.1744 34.1013 28.5733 33.5336 28.7747C33.3084 28.8552 33.191 29.1032 33.2715 29.3279C33.3519 29.5532 33.5998 29.6709 33.8248 29.5904C34.5952 29.3135 35.1719 28.8086 35.5632 28.3791C35.7374 28.1871 35.8731 28.0117 35.9733 27.8714C36.6896 28.2847 37.5744 28.5577 38.5865 28.5572C38.8254 28.5572 39.0196 28.3636 39.0196 28.1244C39.0194 27.8853 38.8253 27.6911 38.5864 27.6911Z" fill="#212121"/>
<path d="M35.6998 36.1586C34.8898 36.1586 34.2461 36.0021 33.7289 35.763C32.9548 35.4034 32.4526 34.8508 32.1366 34.2998C31.9791 34.0251 31.8703 33.7516 31.8018 33.5113C31.7329 33.2721 31.706 33.0624 31.7066 32.9353C31.7066 32.6962 31.5129 32.5024 31.2738 32.5024C31.0343 32.5024 30.8407 32.6961 30.8407 32.9353C30.8407 33.0913 30.8593 33.2638 30.8973 33.4536C30.9633 33.7843 31.089 34.1666 31.2927 34.5606C31.5982 35.151 32.0831 35.7702 32.8078 36.2408C32.9893 36.3595 33.1857 36.4672 33.3971 36.5637C33.4301 36.7058 33.4759 36.9588 33.4756 37.2639C33.4756 37.4859 33.4517 37.7334 33.3846 37.987C33.3174 38.2406 33.2081 38.4992 33.0344 38.7505C32.8983 38.9475 32.9473 39.2171 33.1441 39.3531C33.3408 39.4891 33.6104 39.4403 33.7464 39.2438C33.9828 38.902 34.1326 38.5469 34.2219 38.2084C34.3116 37.8694 34.3415 37.547 34.3415 37.2639C34.3415 37.1224 34.3338 36.9915 34.3221 36.8717C34.7394 36.9688 35.1966 37.0254 35.6998 37.0248C35.9388 37.0248 36.1327 36.8306 36.1327 36.5914C36.1327 36.3528 35.9388 36.1586 35.6998 36.1586Z" fill="#212121"/>
<path d="M41.5814 29.6543C41.3669 29.4695 41.1356 29.318 40.8914 29.2103C40.6475 29.1027 40.3897 29.0383 40.1259 29.0383C39.8867 29.0383 39.6928 29.232 39.6928 29.4711C39.6928 29.7109 39.8867 29.9045 40.1259 29.9045C40.2851 29.904 40.4866 29.9595 40.6982 30.0821C41.0156 30.2641 41.3456 30.5909 41.5855 31.0004C41.8269 31.4093 41.9797 31.896 41.9795 32.3987C41.9776 32.952 41.8033 33.529 41.3317 34.1028C41.1794 34.2876 41.2054 34.56 41.3899 34.7126C41.5742 34.8646 41.8472 34.8386 41.9995 34.6543C42.5937 33.9373 42.8473 33.1422 42.8454 32.3987C42.8454 31.947 42.7549 31.5148 42.6029 31.1208C42.3742 30.5303 42.01 30.0249 41.5814 29.6543Z" fill="#212121"/>
<path d="M26.5046 27.3459V27.3454C26.802 26.993 27.2257 26.7167 27.7087 26.5308C28.1909 26.3444 28.7291 26.2511 29.2327 26.2517C29.7232 26.2506 30.1799 26.341 30.5148 26.4969C30.7321 26.5968 30.9892 26.5025 31.0897 26.285C31.1898 26.068 31.095 25.8111 30.878 25.7106C30.3942 25.4881 29.8257 25.386 29.2328 25.3855C28.6241 25.3855 27.9889 25.4954 27.3974 25.7222C26.8074 25.9497 26.2578 26.2972 25.8436 26.786C25.689 26.9686 25.7118 27.2421 25.8943 27.3964C26.0768 27.5512 26.3501 27.5279 26.5046 27.3459Z" fill="#212121"/>
<path d="M46.102 26.0946L46.1023 26.0952L46.102 26.0946Z" fill="#212121"/>
<path d="M37.0099 40.5505V40.5511H37.0096L37.0099 40.5505Z" fill="#212121"/>
<path d="M46.7634 29.0261C46.6869 28.9484 46.6047 28.8746 46.5216 28.802C46.5651 28.5595 46.5903 28.3125 46.5903 28.0617C46.5906 27.397 46.4322 26.72 46.1023 26.0952C45.7253 25.3788 45.1667 24.8106 44.5147 24.4255C44.0587 24.1558 43.5571 23.9761 43.0371 23.8923C42.9109 23.4434 42.7131 23.0161 42.4473 22.6283C42.0048 21.9824 41.3755 21.4475 40.6056 21.1162C40.0549 20.8793 39.4769 20.7655 38.9093 20.7655C38.9093 20.7655 38.8918 20.765 38.8599 20.7678C38.1391 20.7761 37.4375 20.9653 36.8168 21.311C36.5741 21.0186 36.2933 20.7583 35.9809 20.5391C35.2961 20.0581 34.4588 19.7728 33.5629 19.764C33.5526 19.7634 33.5402 19.7629 33.5249 19.7623C33.523 19.7623 33.5211 19.7623 33.5189 19.7623H33.5183H33.5177H33.5175C33.5161 19.7623 33.5147 19.7623 33.5134 19.7623C33.5051 19.7623 33.4951 19.7629 33.4823 19.7634C32.7022 19.7695 31.965 19.9848 31.3352 20.3576C31.0622 20.5186 30.8131 20.7122 30.5844 20.9275C29.9319 20.5208 29.1609 20.2833 28.3396 20.2794L28.3366 20.2789H28.3172C28.3166 20.2789 28.3163 20.2789 28.3158 20.2789C28.3147 20.2789 28.3136 20.2789 28.3123 20.2789C28.3022 20.2789 28.2898 20.2794 28.2739 20.2805C27.4002 20.2888 26.5809 20.5596 25.9054 21.0191C25.5139 21.2849 25.1713 21.614 24.888 21.9906C24.5296 21.8936 24.1553 21.8409 23.7729 21.8409C23.4548 21.8409 23.1321 21.877 22.8108 21.9502C21.8647 22.1671 21.0566 22.686 20.4774 23.379H20.4778C20.0713 23.8645 19.7781 24.4371 19.6171 25.0548C19.0001 25.264 18.4186 25.6147 17.9322 26.1101C17.9319 26.1107 17.9314 26.1113 17.9308 26.1118C17.1151 26.9436 16.7045 28.0317 16.7048 29.1121V29.1137V29.116C16.7048 29.116 16.7048 29.117 16.7048 29.1181V29.1298H16.7051C16.7061 29.5054 16.7569 29.88 16.856 30.244C16.2999 30.9881 16.0003 31.892 16 32.8171C15.9998 33.5018 16.1649 34.1981 16.508 34.8401C16.8936 35.561 17.4608 36.1319 18.1205 36.5186C18.5833 36.79 19.0913 36.9693 19.6175 37.0536C19.8978 37.8066 20.3783 38.4563 20.9931 38.9374C21.7244 39.5106 22.6469 39.8496 23.6354 39.8496C23.7381 39.8496 23.8405 39.8464 23.9428 39.8386H23.9453H23.9467H23.947H23.9473C24.3836 39.807 24.8018 39.7088 25.1912 39.5573C25.4501 39.9723 25.7755 40.339 26.1534 40.6415C26.8845 41.2269 27.8142 41.5765 28.8108 41.581C28.8144 41.5815 28.8174 41.5815 28.8205 41.5815C28.8239 41.5815 28.8271 41.5815 28.8302 41.5815H28.8308C28.8311 41.5815 28.8311 41.5815 28.8311 41.5815H28.8319H28.8364C28.8378 41.5815 28.8384 41.5815 28.8398 41.5815L28.8506 41.581H28.8536C28.9333 41.5804 29.0132 41.5771 29.0927 41.5721H29.0939L29.1407 41.571C29.4975 41.5448 29.8421 41.4755 30.1687 41.3679C30.5801 41.9788 31.1531 42.4943 31.8619 42.8361H31.8616C32.4597 43.1246 33.0979 43.2628 33.7241 43.2628C34.3339 43.2628 34.9304 43.1303 35.4775 42.885C36.2726 43.7295 37.3938 44.2366 38.5998 44.2378C38.8642 44.2378 39.1317 44.2134 39.3992 44.1629C40.4266 43.9698 41.3069 43.4199 41.9228 42.6691H41.9226C42.3248 42.1803 42.6143 41.6033 42.7691 40.9806C43.4796 40.9108 44.1846 40.6633 44.8077 40.2249C45.4006 39.8087 45.8601 39.2649 46.168 38.6579C46.476 38.0514 46.6347 37.3821 46.6347 36.7069C46.6347 36.2569 46.5614 35.8051 46.4174 35.3696C46.7872 35.0683 47.1143 34.701 47.3751 34.271C47.7969 33.5773 47.9999 32.8038 47.9999 32.0436C47.9998 30.9321 47.5689 29.8418 46.7634 29.0261ZM46.0798 33.484C45.6445 34.2009 44.9428 34.6471 44.1763 34.7797C43.9404 34.8202 43.7823 35.0444 43.8228 35.2796C43.8633 35.5155 44.0872 35.6736 44.3228 35.6331C44.4989 35.6031 44.6724 35.5593 44.8424 35.5038C45.0277 35.8867 45.1191 36.2973 45.1191 36.7068C45.1193 37.1446 45.0159 37.5796 44.8167 37.972C44.6172 38.3643 44.3231 38.7133 43.9369 38.9852C43.4506 39.3259 42.8984 39.4885 42.3482 39.489C42.3053 39.489 42.2622 39.4857 42.2192 39.4835C42.2101 39.4114 42.2012 39.3398 42.1879 39.2682V39.2676C42.093 38.7655 41.8977 38.306 41.6294 37.9071L41.5966 37.8582L41.5522 37.8199C41.224 37.5391 40.7887 37.0775 40.4527 36.607C40.2843 36.3722 40.1403 36.1347 40.0435 35.9233C39.9455 35.7119 39.9006 35.5271 39.9023 35.4178C39.9023 35.369 39.9095 35.3363 39.9176 35.3141C39.9261 35.2925 39.9342 35.2796 39.9511 35.262C40.1201 35.0933 40.1201 34.8186 39.9511 34.6499C39.7819 34.4807 39.5078 34.4807 39.3388 34.6499V34.6494C39.2334 34.7548 39.1538 34.8818 39.1049 35.015C39.0561 35.1482 39.0364 35.2853 39.0364 35.4179C39.038 35.7181 39.1287 36.0021 39.2564 36.284C39.4498 36.7046 39.7383 37.1225 40.0499 37.5036C40.3431 37.8621 40.6553 38.1834 40.9346 38.4298C41.1269 38.7261 41.2673 39.0601 41.3367 39.428C41.3658 39.5828 41.3819 39.7365 41.3841 39.8846L41.3844 39.8869C41.3847 39.9069 41.3849 39.9263 41.3849 39.9463C41.3849 40.6011 41.1521 41.2197 40.7518 41.7075C40.3509 42.1947 39.7868 42.5476 39.1191 42.6735C38.9443 42.7063 38.7709 42.7224 38.6003 42.7224C37.6819 42.723 36.8324 42.2624 36.3219 41.5277C36.5966 41.2491 36.8307 40.9218 37.0099 40.5511C37.2322 40.0917 37.3487 39.6056 37.3701 39.1251C37.3806 38.8853 37.1953 38.6834 36.9567 38.6728C36.7176 38.6623 36.5153 38.8476 36.5047 39.0863C36.4883 39.4541 36.4001 39.8226 36.2301 40.1738L36.2298 40.1749C36.0483 40.5511 35.7942 40.8657 35.4921 41.1149L35.4904 41.116C34.9941 41.5233 34.3659 41.7475 33.7243 41.7475C33.3198 41.7475 32.9099 41.6586 32.5201 41.4711C31.7982 41.1226 31.2969 40.5067 31.0752 39.7987L31.0749 39.7981C30.9902 39.5295 30.9464 39.2482 30.9464 38.9647C30.9464 38.5602 31.0352 38.1507 31.2236 37.759C31.3276 37.5436 31.2369 37.2851 31.0216 37.1813C30.8063 37.0776 30.5474 37.168 30.4437 37.3833C30.1978 37.8927 30.0805 38.4337 30.0805 38.9648C30.0805 39.2222 30.1099 39.477 30.1632 39.7266C29.825 39.9114 29.4435 40.029 29.0312 40.0596H29.0304C28.9632 40.0641 28.8966 40.0663 28.8312 40.0663C28.1811 40.0663 27.5788 39.841 27.0999 39.4581C26.6832 39.1251 26.3639 38.6741 26.1932 38.1519C26.4981 37.8511 26.7506 37.4994 26.9351 37.1093C27.0372 36.8934 26.9448 36.6348 26.7287 36.5327C26.5126 36.4306 26.2543 36.5227 26.1521 36.7391C25.9807 37.102 25.7321 37.4239 25.4261 37.6819C24.9927 38.0475 24.4453 38.2834 23.8358 38.3272H23.8349C23.7681 38.3316 23.7015 38.3344 23.6358 38.3344C22.2608 38.335 21.0872 37.3206 20.8891 35.9612L20.8886 35.9578L20.888 35.9545C20.8774 35.8901 20.8699 35.8224 20.8649 35.7525C20.8603 35.6848 20.8578 35.6182 20.8578 35.5516C20.8578 35.3763 20.8742 35.2048 20.9052 35.0378C20.9485 34.8025 20.7931 34.5767 20.5579 34.5328C20.3229 34.4895 20.0971 34.645 20.0535 34.8802C20.0133 35.0977 19.9919 35.3225 19.9919 35.5516L19.9928 35.5766C19.6035 35.5333 19.2256 35.4096 18.8871 35.211C18.4601 34.9606 18.0959 34.595 17.8445 34.1256C17.6209 33.7072 17.5158 33.26 17.5154 32.8177C17.5154 32.2473 17.6925 31.6869 18.0201 31.2186C18.1455 31.3961 18.2884 31.5648 18.4485 31.7218C18.8134 32.0803 19.2367 32.3461 19.6854 32.5192C19.9082 32.6058 20.159 32.4948 20.2453 32.2718C20.3316 32.0487 20.2206 31.7979 19.9978 31.7118C19.6554 31.5792 19.3342 31.3778 19.0553 31.1037L19.0548 31.1032C18.8095 30.8629 18.6189 30.5888 18.4815 30.2953C18.3076 29.9235 18.2202 29.5201 18.2202 29.1161C18.2204 28.4131 18.4832 27.7145 19.0134 27.1724C19.4642 26.7135 20.0316 26.4449 20.6214 26.3645H20.6219H20.6225L20.6241 26.3639C20.7488 26.3473 20.8741 26.3384 21.0001 26.339C21.7029 26.3395 22.4028 26.6026 22.9447 27.1325C23.1156 27.2995 23.3897 27.2967 23.557 27.1258C23.7243 26.955 23.7213 26.6808 23.5504 26.5138C22.8609 25.8385 21.9668 25.4933 21.0711 25.4761C21.1733 25.0616 21.368 24.6766 21.6399 24.352C22.0161 23.9025 22.5336 23.5696 23.1497 23.4275C23.3589 23.3798 23.5676 23.3565 23.7728 23.3565C24.1357 23.3565 24.4884 23.4286 24.8143 23.5607C24.7216 23.8831 24.6706 24.2233 24.6706 24.5745C24.6706 24.8136 24.8646 25.0073 25.1037 25.0073C25.3428 25.0073 25.5365 24.8136 25.5365 24.5745C25.5365 24.1955 25.6128 23.8337 25.7491 23.5052C25.9582 23.0036 26.3117 22.5752 26.7564 22.2728C27.2021 21.9704 27.7367 21.795 28.3165 21.7945C29.1507 21.795 29.896 22.1601 30.4067 22.7422L30.4076 22.7428C30.8371 23.2316 31.0959 23.8708 31.0962 24.5744C31.0962 24.8135 31.2899 25.0072 31.5293 25.0072C31.7685 25.0072 31.9621 24.8136 31.9621 24.5744C31.9624 23.7748 31.7038 23.0324 31.2657 22.4314C31.4899 22.1207 31.7757 21.8576 32.1064 21.6623C32.5203 21.4176 33.0009 21.2778 33.518 21.2778C34.112 21.2778 34.6586 21.4631 35.11 21.78C35.5614 22.0963 35.9149 22.5441 36.1143 23.0662L36.1141 23.0657C36.2318 23.3748 36.2964 23.7071 36.2966 24.0578C36.2966 24.297 36.4903 24.4907 36.7295 24.4907C36.9686 24.4907 37.1626 24.297 37.1626 24.0578C37.1626 23.7005 37.109 23.3553 37.013 23.0291C37.5257 22.5513 38.2063 22.2811 38.9085 22.2811C39.2753 22.2811 39.6471 22.3543 40.0066 22.5086C40.508 22.7245 40.9106 23.0679 41.1977 23.4863C41.4846 23.9041 41.6538 24.3963 41.6824 24.9045C41.6852 24.9567 41.6869 25.0094 41.6869 25.0621C41.6866 25.4288 41.6141 25.8001 41.4599 26.1597C41.3656 26.3795 41.4669 26.6341 41.6866 26.7284C41.9063 26.8233 42.1609 26.7212 42.2553 26.5015C42.4159 26.1286 42.5083 25.7418 42.5396 25.3568C42.9641 25.3851 43.3776 25.5138 43.7437 25.7302C44.1618 25.9777 44.5175 26.3383 44.7614 26.8011V26.8016C44.9748 27.2056 45.0746 27.6362 45.0749 28.0618C45.0749 28.2571 45.0524 28.4502 45.0111 28.6395C44.7497 28.5385 44.4814 28.4691 44.2109 28.4308C43.9742 28.3975 43.7554 28.5624 43.7221 28.7998C43.6888 29.0363 43.8536 29.2554 44.0905 29.2887C44.3621 29.327 44.6299 29.4053 44.8867 29.5262C44.9322 29.6 44.9994 29.6616 45.0851 29.6982C45.1387 29.721 45.1942 29.7321 45.2491 29.7326C45.4089 29.8391 45.5543 29.9585 45.6841 30.0905L45.6783 30.0845L45.6852 30.0916C46.2037 30.6155 46.4845 31.323 46.4842 32.0437C46.4843 32.5357 46.3545 33.0324 46.0798 33.484Z" fill="#212121"/>
</g>
<defs>
<clipPath id="clip0_373_430">
<rect width="32" height="32" fill="white" transform="translate(16 16)"/>
</clipPath>
</defs>
</svg>
