<svg width="64" height="64" viewBox="0 0 64 64" fill="none" xmlns="http://www.w3.org/2000/svg">
<circle cx="32" cy="32" r="31.5" fill="#F7F7F7" stroke="#F3EFFF"/>
<g clip-path="url(#clip0_153_1079)">
<path d="M36.4444 39.1112C36.4444 39.3469 36.3508 39.573 36.1841 39.7397C36.0174 39.9064 35.7913 40.0001 35.5555 40.0001H23.1111C22.9155 40.0001 22.7289 40.1778 22.5689 40.2934L19.5555 42.6667V28.4445C19.5555 28.2088 19.6492 27.9827 19.8159 27.816C19.9826 27.6493 20.2087 27.5556 20.4444 27.5556H23.8755V25.7778H20.4444C19.7372 25.7778 19.0589 26.0588 18.5588 26.5589C18.0587 27.059 17.7778 27.7373 17.7778 28.4445V44.4445C17.7791 44.6096 17.8264 44.771 17.9143 44.9108C18.0022 45.0505 18.1273 45.163 18.2755 45.2356C18.4184 45.3006 18.5758 45.3266 18.732 45.3109C18.8881 45.2953 19.0373 45.2387 19.1644 45.1467L23.7422 41.7778H35.6889C36.0258 41.7878 36.3611 41.7285 36.6742 41.6036C36.9872 41.4787 37.2713 41.2908 37.5088 41.0516C37.7463 40.8125 37.9321 40.5271 38.0548 40.2132C38.1776 39.8993 38.2345 39.5635 38.2222 39.2267V38.2223H36.4444V39.1112Z" fill="#12EC2D"/>
<path d="M44.4444 27.7511V36.3911L41.3333 33.9644C41.1782 33.844 40.9875 33.7784 40.7911 33.7778H28.4444C28.2087 33.7778 27.9826 33.6841 27.8159 33.5174C27.6492 33.3507 27.5555 33.1246 27.5555 32.8889V22.2222C27.5555 21.9865 27.6492 21.7604 27.8159 21.5937C27.9826 21.427 28.2087 21.3333 28.4444 21.3333H36C36.0023 20.7322 36.086 20.1342 36.2489 19.5555H28.4444C27.7372 19.5555 27.0589 19.8365 26.5588 20.3366C26.0587 20.8367 25.7778 21.515 25.7778 22.2222V32.8889C25.7778 33.5961 26.0587 34.2744 26.5588 34.7745C27.0589 35.2746 27.7372 35.5555 28.4444 35.5555H40.4889L44.7378 38.8533C44.8641 38.9467 45.0129 39.005 45.169 39.0221C45.3252 39.0393 45.4831 39.0148 45.6267 38.9511C45.7779 38.8791 45.9057 38.7657 45.9954 38.6242C46.085 38.4826 46.1329 38.3186 46.1333 38.1511V26.9955C45.6085 27.3252 45.04 27.5795 44.4444 27.7511Z" fill="#12EC2D"/>
<path d="M42.6667 25.7778C45.1213 25.7778 47.1111 23.788 47.1111 21.3334C47.1111 18.8788 45.1213 16.8889 42.6667 16.8889C40.2121 16.8889 38.2222 18.8788 38.2222 21.3334C38.2222 23.788 40.2121 25.7778 42.6667 25.7778Z" fill="#12EC2D"/>
</g>
<defs>
<clipPath id="clip0_153_1079">
<rect width="32" height="32" fill="white" transform="translate(16 16)"/>
</clipPath>
</defs>
</svg>
