<svg width="25" height="24" viewBox="0 0 25 24" fill="none" xmlns="http://www.w3.org/2000/svg">
<path d="M12.3343 9C10.6769 9 9.33429 10.3431 9.33429 12C9.33429 13.6573 10.6774 15 12.3343 15C13.9916 15 15.3343 13.6569 15.3343 12C15.3343 10.3427 13.9912 9 12.3343 9ZM12.3343 7C15.0947 7 17.3343 9.2371 17.3343 12C17.3343 14.7605 15.0972 17 12.3343 17C9.57382 17 7.33429 14.7629 7.33429 12C7.33429 9.23953 9.57139 7 12.3343 7ZM18.8343 6.74915C18.8343 7.43926 18.2735 7.99917 17.5843 7.99917C16.8942 7.99917 16.3343 7.4384 16.3343 6.74915C16.3343 6.0599 16.895 5.5 17.5843 5.5C18.2726 5.49913 18.8343 6.0599 18.8343 6.74915ZM12.3343 4C9.85981 4 9.45649 4.00655 8.30558 4.0578C7.52146 4.09461 6.99584 4.20007 6.50747 4.38967C6.07347 4.55799 5.7604 4.75898 5.42683 5.09255C5.09198 5.4274 4.89135 5.73963 4.72371 6.17383C4.53367 6.66332 4.42824 7.18811 4.39209 7.97115C4.34034 9.0752 4.33429 9.46105 4.33429 12C4.33429 14.4745 4.34084 14.8778 4.39208 16.0286C4.42891 16.8124 4.53451 17.3388 4.72365 17.826C4.89241 18.2606 5.09381 18.5744 5.42577 18.9064C5.76194 19.2421 6.0751 19.4434 6.50518 19.6094C6.9995 19.8005 7.52479 19.9061 8.30543 19.9422C9.40949 19.9939 9.79534 20 12.3343 20C14.8088 20 15.2121 19.9934 16.3629 19.9422C17.145 19.9055 17.6718 19.7996 18.1603 19.6106C18.5937 19.4423 18.9085 19.2402 19.2407 18.9085C19.5769 18.5718 19.7778 18.2594 19.944 17.8283C20.1346 17.3358 20.2404 16.8098 20.2765 16.0289C20.3282 14.9248 20.3343 14.5389 20.3343 12C20.3343 9.52552 20.3277 9.12221 20.2765 7.97137C20.2397 7.18906 20.1338 6.66149 19.9446 6.17318C19.7767 5.74038 19.575 5.42635 19.2417 5.09255C18.9063 4.75715 18.5949 4.55693 18.1604 4.38942C17.6713 4.19954 17.1457 4.09396 16.3631 4.05781C15.2591 4.00605 14.8732 4 12.3343 4ZM12.3343 2C15.0509 2 15.3901 2.01 16.4568 2.06C17.5209 2.10917 18.2468 2.2775 18.8843 2.525C19.5434 2.77917 20.1001 3.1225 20.6559 3.67833C21.2109 4.23417 21.5543 4.7925 21.8093 5.45C22.0559 6.08667 22.2243 6.81333 22.2743 7.8775C22.3218 8.94417 22.3343 9.28333 22.3343 12C22.3343 14.7167 22.3243 15.0558 22.2743 16.1225C22.2251 17.1867 22.0559 17.9125 21.8093 18.55C21.5551 19.2092 21.2109 19.7658 20.6559 20.3217C20.1001 20.8767 19.5409 21.22 18.8843 21.475C18.2468 21.7217 17.5209 21.89 16.4568 21.94C15.3901 21.9875 15.0509 22 12.3343 22C9.61762 22 9.27845 21.99 8.21179 21.94C7.14762 21.8908 6.42262 21.7217 5.78429 21.475C5.12595 21.2208 4.56845 20.8767 4.01262 20.3217C3.45679 19.7658 3.11429 19.2067 2.85929 18.55C2.61179 17.9125 2.44429 17.1867 2.39429 16.1225C2.34679 15.0558 2.33429 14.7167 2.33429 12C2.33429 9.28333 2.34429 8.94417 2.39429 7.8775C2.44345 6.8125 2.61179 6.0875 2.85929 5.45C3.11345 4.79167 3.45679 4.23417 4.01262 3.67833C4.56845 3.1225 5.12679 2.78 5.78429 2.525C6.42179 2.2775 7.14679 2.11 8.21179 2.06C9.27845 2.0125 9.61762 2 12.3343 2Z" fill="white"/>
</svg>
