<svg width="25" height="24" viewBox="0 0 25 24" fill="none" xmlns="http://www.w3.org/2000/svg">
<path d="M12.3924 9C10.735 9 9.39233 10.3431 9.39233 12C9.39233 13.6573 10.7355 15 12.3924 15C14.0497 15 15.3924 13.6569 15.3924 12C15.3924 10.3427 14.0493 9 12.3924 9ZM12.3924 7C15.1528 7 17.3924 9.2371 17.3924 12C17.3924 14.7605 15.1553 17 12.3924 17C9.63187 17 7.39233 14.7629 7.39233 12C7.39233 9.23953 9.62944 7 12.3924 7ZM18.8924 6.74915C18.8924 7.43926 18.3316 7.99917 17.6424 7.99917C16.9523 7.99917 16.3924 7.4384 16.3924 6.74915C16.3924 6.0599 16.9531 5.5 17.6424 5.5C18.3307 5.49913 18.8924 6.0599 18.8924 6.74915ZM12.3924 4C9.91786 4 9.51453 4.00655 8.36362 4.0578C7.5795 4.09461 7.05388 4.20007 6.56551 4.38967C6.13151 4.55799 5.81844 4.75898 5.48487 5.09255C5.15002 5.4274 4.94939 5.73963 4.78175 6.17383C4.59171 6.66332 4.48628 7.18811 4.45013 7.97115C4.39838 9.0752 4.39233 9.46105 4.39233 12C4.39233 14.4745 4.39888 14.8778 4.45012 16.0286C4.48695 16.8124 4.59255 17.3388 4.78169 17.826C4.95045 18.2606 5.15185 18.5744 5.48381 18.9064C5.81998 19.2421 6.13314 19.4434 6.56322 19.6094C7.05754 19.8005 7.58283 19.9061 8.36347 19.9422C9.46753 19.9939 9.85338 20 12.3924 20C14.8669 20 15.2702 19.9934 16.421 19.9422C17.2031 19.9055 17.7299 19.7996 18.2184 19.6106C18.6518 19.4423 18.9666 19.2402 19.2988 18.9085C19.635 18.5718 19.8359 18.2594 20.0021 17.8283C20.1927 17.3358 20.2985 16.8098 20.3346 16.0289C20.3863 14.9248 20.3924 14.5389 20.3924 12C20.3924 9.52552 20.3858 9.12221 20.3346 7.97137C20.2978 7.18906 20.1919 6.66149 20.0027 6.17318C19.8348 5.74038 19.6331 5.42635 19.2998 5.09255C18.9644 4.75715 18.653 4.55693 18.2185 4.38942C17.7294 4.19954 17.2038 4.09396 16.4212 4.05781C15.3172 4.00605 14.9313 4 12.3924 4ZM12.3924 2C15.109 2 15.4482 2.01 16.5149 2.06C17.579 2.10917 18.3049 2.2775 18.9424 2.525C19.6015 2.77917 20.1582 3.1225 20.714 3.67833C21.269 4.23417 21.6124 4.7925 21.8674 5.45C22.114 6.08667 22.2824 6.81333 22.3324 7.8775C22.3799 8.94417 22.3924 9.28333 22.3924 12C22.3924 14.7167 22.3824 15.0558 22.3324 16.1225C22.2832 17.1867 22.114 17.9125 21.8674 18.55C21.6132 19.2092 21.269 19.7658 20.714 20.3217C20.1582 20.8767 19.599 21.22 18.9424 21.475C18.3049 21.7217 17.579 21.89 16.5149 21.94C15.4482 21.9875 15.109 22 12.3924 22C9.67566 22 9.33649 21.99 8.26983 21.94C7.20566 21.8908 6.48066 21.7217 5.84233 21.475C5.18399 21.2208 4.62649 20.8767 4.07066 20.3217C3.51483 19.7658 3.17233 19.2067 2.91733 18.55C2.66983 17.9125 2.50233 17.1867 2.45233 16.1225C2.40483 15.0558 2.39233 14.7167 2.39233 12C2.39233 9.28333 2.40233 8.94417 2.45233 7.8775C2.50149 6.8125 2.66983 6.0875 2.91733 5.45C3.17149 4.79167 3.51483 4.23417 4.07066 3.67833C4.62649 3.1225 5.18483 2.78 5.84233 2.525C6.47983 2.2775 7.20483 2.11 8.26983 2.06C9.33649 2.0125 9.67566 2 12.3924 2Z" fill="white"/>
</svg>
