<svg width="25" height="24" viewBox="0 0 25 24" fill="none" xmlns="http://www.w3.org/2000/svg">
<path d="M4.39233 3H20.3924C20.9447 3 21.3924 3.44772 21.3924 4V20C21.3924 20.5523 20.9447 21 20.3924 21H4.39233C3.84004 21 3.39233 20.5523 3.39233 20V4C3.39233 3.44772 3.84004 3 4.39233 3ZM5.39233 5V19H19.3924V5H5.39233ZM7.89233 9C7.0639 9 6.39233 8.32843 6.39233 7.5C6.39233 6.67157 7.0639 6 7.89233 6C8.72075 6 9.39233 6.67157 9.39233 7.5C9.39233 8.32843 8.72075 9 7.89233 9ZM6.89233 10H8.89233V17.5H6.89233V10ZM12.3924 10.4295C12.9768 9.86534 13.6579 9.5 14.3924 9.5C16.4634 9.5 17.8924 11.1789 17.8924 13.25V17.5H15.8924V13.25C15.8924 12.2835 15.1089 11.5 14.1424 11.5C13.1759 11.5 12.3924 12.2835 12.3924 13.25V17.5H10.3924V10H12.3924V10.4295Z" fill="white"/>
</svg>
