<svg width="25" height="24" viewBox="0 0 25 24" fill="none" xmlns="http://www.w3.org/2000/svg">
<path d="M4.33429 3H20.3343C20.8866 3 21.3343 3.44772 21.3343 4V20C21.3343 20.5523 20.8866 21 20.3343 21H4.33429C3.782 21 3.33429 20.5523 3.33429 20V4C3.33429 3.44772 3.782 3 4.33429 3ZM5.33429 5V19H19.3343V5H5.33429ZM7.83429 9C7.00586 9 6.33429 8.32843 6.33429 7.5C6.33429 6.67157 7.00586 6 7.83429 6C8.66271 6 9.33429 6.67157 9.33429 7.5C9.33429 8.32843 8.66271 9 7.83429 9ZM6.83429 10H8.83429V17.5H6.83429V10ZM12.3343 10.4295C12.9187 9.86534 13.5998 9.5 14.3343 9.5C16.4053 9.5 17.8343 11.1789 17.8343 13.25V17.5H15.8343V13.25C15.8343 12.2835 15.0508 11.5 14.0843 11.5C13.1178 11.5 12.3343 12.2835 12.3343 13.25V17.5H10.3343V10H12.3343V10.4295Z" fill="white"/>
</svg>
